<svg xmlns="http://www.w3.org/2000/svg" viewBox="0 0 412.89 118">
  <g id="Vrstva_2" data-name="Vrstva 2">
    <g id="Vrstva_1-2" data-name="Vrstva 1">
      <rect width="412.89" height="118" style="fill: #fff;opacity: 0"/>
      <g>
        <rect x="24.25" y="42.05" width="45.11" height="2.92" style="fill: #1d1d1b"/>
        <g>
          <path d="M341.09,80.27H329.46c0-.68,0-1.43,0-2.19.17-7.17.41-14.35.48-21.53a19.54,19.54,0,0,0-.85-5.51,5.54,5.54,0,0,0-5.3-4.16c-5.26-.47-9,2.32-10.21,7.78a20.36,20.36,0,0,0-.49,4.86c.13,6.61.37,13.22.57,19.83,0,.3,0,.59,0,.92H302c0-.82,0-1.68,0-2.54.64-14,.93-27.91.49-41.88a31,31,0,0,0-.56-4.36A2.78,2.78,0,0,0,299.37,29c-1.31-.18-2.63-.32-4-.49V25.67L313.71,25c-.21,7.5-.42,14.92-.63,22.34l.28.11.79-.91c4.36-5,12.47-7.08,18.63-4.77,4.62,1.74,7.15,5.19,7.8,10a37.92,37.92,0,0,1,.23,4.4q.18,11.87.31,23.74a2,2,0,0,1,0,.32" style="fill: #1d1d1b"/>
          <path d="M103.28,45.05V42.13L121,41.32v6.12l.64-.71c4.41-5.12,12.57-7.3,18.84-4.95,4.89,1.82,7.39,5.53,7.88,10.61.2,2,.06,4.07.09,6.1.08,6.71.18,13.43.26,20.14,0,.56,0,1.11,0,1.64H137.21c0-2.08,0-4.18,0-6.27.09-6.24.28-12.49.25-18.73a14.62,14.62,0,0,0-1-4.85,5.31,5.31,0,0,0-4.82-3.52c-5.56-.57-9.44,2.51-10.52,8.38a20.73,20.73,0,0,0-.38,4.08c.13,6.54.34,13.09.52,19.63,0,.43,0,.86,0,1.28H109.47c.08-1.74.2-3.5.24-5.26.13-7,.29-14.09.32-21.13a36.17,36.17,0,0,0-.58-5.77c-.32-2-.93-2.52-3-2.78-1-.13-2.11-.19-3.22-.28" style="fill: #1d1d1b"/>
          <path d="M343.72,45.13V42.2h22.22V45c-.93.09-1.86.15-2.77.28-1.92.27-2.64,1.13-2.21,3a48.63,48.63,0,0,0,2,6.5c1.95,5,4,10,6.06,14.92.13.33.31.65.49,1,.11-.09.22-.14.25-.22a145.72,145.72,0,0,0,7.92-20.72q.11-.37.18-.78c.48-2.34-.21-3.35-2.61-3.72-.75-.11-1.51-.17-2.34-.26V42.2h15.85v2.9c-2.46,0-3.94,1.53-4.88,3.56-2.11,4.57-4.25,9.13-6.1,13.81-4,10.23-7.9,20.53-11.81,30.81a.94.94,0,0,1-1.08.72c-3.61,0-7.21,0-10.82,0a3.62,3.62,0,0,1-.89-.22,3.27,3.27,0,0,1,.3-.88c2.52-3.9,5-7.79,7.59-11.66a2.63,2.63,0,0,0,.24-2.6q-4.9-13.92-11.15-27.3c-.47-1-1-2-1.5-3-1-2-2.43-3.33-4.89-3.24" style="fill: #1d1d1b"/>
          <path d="M178.24,80.49c-2.8,0-5.57,0-8.33,0-.27,0-.64-.47-.77-.8-1.44-3.84-2.73-7.74-4.29-11.53-2.42-5.92-5-11.78-7.56-17.65-.23-.55-.55-1.07-.81-1.61-1-2.15-2.4-3.89-5.15-3.74v-3h22.21V45c-.88.09-1.74.15-2.59.26-2.17.27-3,1.25-2.33,3.34,1,3.41,2.16,6.8,3.43,10.13,1.44,3.76,3.09,7.45,4.65,11.17.13.3.29.59.51,1.06.71-1.66,1.42-3.15,2-4.69q3-8.16,6-16.34a8.09,8.09,0,0,0,.37-2,1.9,1.9,0,0,0-1.45-2.31,35.29,35.29,0,0,0-3.61-.75V42.18h15.79V45.1c-2.52,0-4,1.64-4.94,3.72-2.19,4.75-4.4,9.5-6.38,14.34-2.27,5.52-4.3,11.13-6.44,16.7-.08.22-.18.42-.28.63" style="fill: #1d1d1b"/>
          <path d="M262.29,53.48c-.54-1.72-.89-3.33-1.53-4.81-1.95-4.53-7.56-5.09-10.51-3.9a4.84,4.84,0,0,0-1.2,8.19A26.16,26.16,0,0,0,254,56.13c1.85,1,3.84,1.71,5.72,2.65a20.52,20.52,0,0,1,3.22,2c6.8,5.19,4.89,15.45-2.65,18.84a21.25,21.25,0,0,1-7,1.69,41.08,41.08,0,0,1-14-1.06c-.59-.15-.82-.37-.8-1,0-1.72,0-3.45,0-5.39.58.27,1,.43,1.32.63a20.55,20.55,0,0,0,12.85,2.9c2.59-.32,4.19-1.68,4.6-3.77a4.23,4.23,0,0,0-1.7-4.43,39.14,39.14,0,0,0-4.81-3c-1.87-1-3.87-1.83-5.73-2.86a19.92,19.92,0,0,1-3.43-2.4c-5.06-4.38-4.18-10.53-1.39-14.44,2.44-3.41,5.89-4.88,9.89-5.36A39.94,39.94,0,0,1,264,42.18c.77.17.91.53.91,1.23,0,3,0,6,0,9,0,.82-.2,1.17-1.05,1.07a14,14,0,0,0-1.58,0" style="fill: #1d1d1b"/>
          <path d="M296,46c-2.58,0-5.11,0-7.64,0-1.65,0-1.53-.24-1.52,1.49q.06,12,.17,24a9.1,9.1,0,0,0,.21,1.88A4.7,4.7,0,0,0,292,77.33a39.59,39.59,0,0,0,4.14-.25c.19.81.39,1.67.64,2.77-1.78.42-3.5.92-5.26,1.21a24.71,24.71,0,0,1-9.35,0A7.26,7.26,0,0,1,276,73.82c-.09-4.51,0-9,0-13.52,0-4.21.1-8.42.12-12.62,0-2-.45-2.49-2.46-2.55-1.39,0-2.79,0-4.27,0V42.28a31.87,31.87,0,0,0,3.91-.92c4.67-1.75,7.13-5.38,8.18-10.09.15-.69.38-.87,1-.85,1.43,0,2.86,0,4.39,0V42.09H296Z" style="fill: #1d1d1b"/>
          <path d="M209.57,47.85a7.34,7.34,0,0,1,8.15-3.47c2.74.61,4.81,3.35,5.1,6.6s-.44,4.26-3.78,4.36c-3.83.11-7.67,0-11.6,0a18.56,18.56,0,0,1,2.13-7.51m20.48,28.07c-5.71,1.53-11.38,2.06-16.3-2-4.74-3.87-6.5-9.17-6.49-15.27h26.48a46.11,46.11,0,0,0-.32-4.74c-.93-5.29-3.63-9.36-8.64-11.61a20.8,20.8,0,0,0-11.31-1.23c-6.16.79-11.16,3.6-14.5,8.92-2.75,4.38-3.33,9.28-2.8,14.36a18.13,18.13,0,0,0,13.23,16,30.63,30.63,0,0,0,14.18.46,25.35,25.35,0,0,0,7.22-2.35c-.19-.73-.37-1.4-.56-2.07,0-.15-.1-.3-.19-.54" style="fill: #1d1d1b"/>
          <path d="M86.64,36.32a6.16,6.16,0,0,1-6.2-6.12A6.29,6.29,0,0,1,86.72,24a6.1,6.1,0,0,1,6,6.27,6,6,0,0,1-6.11,6.05" style="fill: #1d1d1b"/>
          <path d="M74.73,42.13V45l3.92.47a2.31,2.31,0,0,1,2.13,2.07c0,.31.1.63.16.94.31,10.69.15,21.11-.5,31.79H92.81c-.65-10.68-.81-21.1-.5-31.79.06-.31.11-.63.16-.94a2.31,2.31,0,0,1,2.13-2.07L98.52,45V42.13Z" style="fill: #1d1d1b"/>
        </g>
      </g>
    </g>
  </g>
</svg>
